<svg width="283" height="256" viewBox="0 0 283 256" fill="none" xmlns="http://www.w3.org/2000/svg">
    <rect width="283" height="256" rx="20" fill="silver" fill-opacity="0.6667" />
    <path
        d="M145.5 55V62.3502C145.5 86.1265 132.352 107.953 111.334 119.069V119.069C75.3301 138.109 65.9491 185.443 91.9682 216.777V216.777C130.343 262.991 205.5 235.857 205.5 175.788V159.5"
        stroke="#444444" stroke-width="30" stroke-linecap="round" stroke-linejoin="round" />
    <path
        d="M15 239V40.1519C15 33.0677 18.0695 26.3309 23.4153 21.6823V21.6823C31.9662 14.2468 44.5028 13.6529 53.7183 20.2467L79.2402 38.508C90.1396 46.3068 103.206 50.5 116.608 50.5H142.25H167.907C181.261 50.5 194.24 46.0886 204.828 37.9515L226.762 21.0953C236.003 13.9933 248.899 14.119 258 21.3998V21.3998C264.004 26.2036 267.5 33.4765 267.5 41.1663V239"
        stroke="black" stroke-width="30" stroke-linecap="round" stroke-linejoin="round" />
</svg>
